<svg id="Layer_1" data-name="Layer 1" xmlns="http://www.w3.org/2000/svg" xmlns:xlink="http://www.w3.org/1999/xlink" viewBox="0 0 420 340"><defs><style>.cls-1{fill:#ffde83;}.cls-2,.cls-8,.cls-9{fill:#fff;}.cls-2,.cls-4,.cls-5,.cls-6,.cls-9{stroke:#3a3836;}.cls-10,.cls-2,.cls-4,.cls-5,.cls-6{stroke-linecap:round;stroke-linejoin:round;}.cls-10,.cls-2,.cls-4,.cls-5,.cls-6,.cls-9{stroke-width:2px;}.cls-3{fill:#3a3836;}.cls-10,.cls-4{fill:none;}.cls-5{fill:#fd8753;}.cls-6{fill:#d1dafa;}.cls-7{fill:url(#linear-gradient);}.cls-9{stroke-miterlimit:10;}.cls-10{stroke:#fd8753;}</style><linearGradient id="linear-gradient" x1="42.24" y1="150.09" x2="42.24" y2="213.12" gradientUnits="userSpaceOnUse"><stop offset="0" stop-color="#ff6d37"/><stop offset="0.54" stop-color="#fa9139"/><stop offset="1" stop-color="#f7ac3b"/></linearGradient></defs><rect class="cls-1" x="267.31" y="194.99" width="134.82" height="105.5"/><rect class="cls-1" x="86.81" y="32.13" width="160.56" height="125.65"/><path class="cls-2" d="M233.88,247.74,229.65,266s-9.31-1.69-10.15,6.48h88.77c-.84-8.17-10.15-6.48-10.15-6.48l-4.23-18.28"/><rect class="cls-2" x="141.86" y="67.81" width="242.65" height="179.93" rx="6.31"/><path class="cls-3" d="M184,97.77H341.25a7.21,7.21,0,0,1,7.21,7.21v5.55a0,0,0,0,1,0,0H176.8a0,0,0,0,1,0,0V105A7.21,7.21,0,0,1,184,97.77Z"/><path class="cls-4" d="M148.17,223.54V80.88a6,6,0,0,1,6-6H372.21a6,6,0,0,1,6,6V222.59"/><line class="cls-4" x1="141.86" y1="224" x2="384.5" y2="224"/><path class="cls-4" d="M177.24,224V103.55A5.78,5.78,0,0,1,183,97.77H342.68a5.78,5.78,0,0,1,5.78,5.78V224"/><line class="cls-4" x1="177.24" y1="110.52" x2="348.46" y2="110.52"/><rect class="cls-5" x="295.28" y="124.4" width="40.97" height="33.37"/><rect class="cls-6" x="186.92" y="125.6" width="98.33" height="6.42"/><rect class="cls-6" x="186.92" y="142.46" width="98.33" height="6.42"/><rect class="cls-6" x="186.92" y="170.08" width="149.33" height="53.92"/><circle class="cls-4" cx="263.12" cy="235.84" r="4.18"/><polygon class="cls-7" points="69.53 197.36 69.53 165.85 42.24 150.09 14.95 165.85 14.95 197.36 42.24 213.12 69.53 197.36"/><polygon class="cls-4" points="69.53 197.36 69.53 165.85 42.24 150.09 14.95 165.85 14.95 197.36 42.24 213.12 69.53 197.36"/><path class="cls-4" d="M42.24,150.09V112.21A14.44,14.44,0,0,1,56.69,97.77h85.17"/><path class="cls-4" d="M42.24,213.12v57.31a14.44,14.44,0,0,0,14.45,14.44H161.35a14.44,14.44,0,0,0,14.45-14.44V249"/><path class="cls-2" d="M103.82,87h38a0,0,0,0,1,0,0v21.19a0,0,0,0,1,0,0h-38a2.64,2.64,0,0,1-2.64-2.64V89.62A2.64,2.64,0,0,1,103.82,87Z"/><circle class="cls-8" cx="184.67" cy="104.41" r="2.25"/><circle class="cls-8" cx="192.67" cy="104.41" r="2.25"/><circle class="cls-8" cx="200.67" cy="104.41" r="2.25"/><path class="cls-9" d="M314.84,39.13l7,2.28-7,2.29-2.28,7-2.28-7-7-2.29,7-2.28,2.28-7Z"/><path class="cls-9" d="M121.64,139l6.52,2.13-6.52,2.12-2.12,6.52-2.12-6.52-6.52-2.12L117.4,139l2.12-6.51Z"/><polyline class="cls-10" points="107.89 99.17 112.48 99.17 116.67 91.89 123.52 102.95 128.54 94.86 135.16 94.86"/><rect class="cls-2" x="166.48" y="247.74" width="17.98" height="4.95"/><polygon class="cls-3" points="233.88 247.74 295.55 252.91 295.28 247.98 233.88 247.74"/></svg>